<?xml version="1.0" encoding="UTF-8" standalone="no"?>
<!DOCTYPE svg PUBLIC "-//W3C//DTD SVG 1.1//EN" "http://www.w3.org/Graphics/SVG/1.1/DTD/svg11.dtd">
<svg width="100%" height="100%" viewBox="0 0 48 48" version="1.1" xmlns="http://www.w3.org/2000/svg" xmlns:xlink="http://www.w3.org/1999/xlink" xml:space="preserve" xmlns:serif="http://www.serif.com/" style="fill-rule:evenodd;clip-rule:evenodd;stroke-linejoin:round;stroke-miterlimit:2;">
    <path d="M23.135,4.348C23.618,3.884 24.381,3.884 24.865,4.348C27.623,6.991 31.549,8.425 34.902,9.187C36.561,9.564 38.041,9.768 39.104,9.878C39.635,9.932 40.061,9.963 40.35,9.98C40.495,9.989 40.605,9.994 40.678,9.997C40.715,9.998 40.742,9.999 40.759,10L40.779,10C41.458,10.016 42,10.571 42,11.25L42,21C42,30.497 36.941,40.016 24.373,43.943C24.13,44.019 23.87,44.019 23.627,43.943C17.389,41.994 12.959,38.651 10.098,34.525C7.243,30.408 6,25.587 6,20.75L6,11.25C6,10.571 6.542,10.017 7.22,10C7.22,10 7.22,10 7.22,10L7.242,10C7.259,9.999 7.285,9.998 7.322,9.997C7.395,9.994 7.505,9.989 7.65,9.98C7.939,9.963 8.365,9.932 8.896,9.878C9.959,9.768 11.439,9.564 13.098,9.187C16.45,8.425 20.376,6.991 23.135,4.348ZM8.5,12.425L8.5,20.75C8.5,25.163 9.632,29.467 12.152,33.1C14.611,36.645 18.44,39.624 24,41.438C35.156,37.799 39.5,29.41 39.5,21L39.5,12.425C39.303,12.409 39.085,12.389 38.849,12.365C37.709,12.247 36.126,12.029 34.348,11.625C31.129,10.894 27.137,9.523 24,6.923C20.862,9.523 16.87,10.894 13.652,11.625C11.873,12.029 10.291,12.247 9.151,12.365C8.915,12.389 8.697,12.409 8.5,12.425Z" style="fill:white;fill-rule:nonzero;"/>
    <g transform="matrix(0.675,0,0,0.675,7.95,8.3)">
        <path d="M16,12C16,7.582 19.582,4 24,4C28.418,4 32,7.582 32,12L32,24C32,28.418 28.418,32 24,32C19.582,32 16,28.418 16,24L16,12ZM24,6.5C20.962,6.5 18.5,8.962 18.5,12L18.5,24C18.5,27.038 20.962,29.5 24,29.5C27.038,29.5 29.5,27.038 29.5,24L29.5,12C29.5,8.962 27.038,6.5 24,6.5ZM25,37.715C32.265,37.202 38,31.146 38,23.75C38,23.06 37.44,22.5 36.75,22.5C36.06,22.5 35.5,23.06 35.5,23.75C35.5,30.101 30.351,35.25 24,35.25C17.649,35.25 12.5,30.101 12.5,23.75C12.5,23.06 11.94,22.5 11.25,22.5C10.56,22.5 10,23.06 10,23.75C10,30.975 15.473,36.922 22.5,37.671L22.5,42.75C22.5,43.44 23.06,44 23.75,44C24.44,44 25,43.44 25,42.75L25,37.715Z" style="fill:white;fill-rule:nonzero;stroke:white;stroke-width:0.76px;"/>
    </g>
</svg>
